<?xml version="1.0" standalone="no"?>
<!DOCTYPE svg PUBLIC "-//W3C//DTD SVG 20010904//EN"
 "http://www.w3.org/TR/2001/REC-SVG-20010904/DTD/svg10.dtd">
<svg version="1.0" xmlns="http://www.w3.org/2000/svg"
 width="155.000000pt" height="155.000000pt" viewBox="0 0 155.000000 155.000000"
 preserveAspectRatio="xMidYMid meet">
<metadata>
Created by potrace 1.11, written by Peter Selinger 2001-2013
</metadata>
<g transform="translate(0.000000,155.000000) scale(0.100000,-0.100000)"
fill="#000000" stroke="none">
<path d="M455 1165 c-139 -32 -249 -91 -261 -141 -5 -20 -2 -31 11 -41 51 -37
235 17 275 80 18 29 6 30 -35 3 -52 -36 -159 -63 -184 -47 -41 26 52 94 150
108 89 14 147 2 180 -35 35 -39 36 -68 6 -113 -29 -43 -90 -80 -275 -164 -163
-75 -241 -117 -225 -122 6 -2 73 6 149 17 77 12 209 24 294 27 l155 6 100 -33
c113 -37 242 -50 312 -31 55 15 129 68 156 111 20 33 18 32 -27 -12 -82 -82
-210 -100 -352 -48 -193 71 -198 72 -314 79 l-115 6 55 29 c120 63 194 128
211 186 10 33 9 43 -7 71 -38 64 -144 91 -259 64z"/>
<path d="M910 1165 c-59 -19 -113 -65 -139 -118 -28 -57 -28 -144 -1 -197 25
-49 30 -52 58 -30 22 18 22 20 7 49 -30 59 -30 115 -1 174 34 70 87 108 159
115 42 5 47 7 27 13 -37 10 -60 9 -110 -6z"/>
<path d="M917 1111 c-24 -17 -46 -42 -47 -53 0 -16 32 -7 37 10 2 9 16 26 31
37 l26 19 -23 -32 c-13 -18 -21 -36 -18 -39 10 -10 39 7 34 20 -2 6 5 21 15
32 19 20 19 20 9 -8 -16 -43 -14 -45 32 -44 41 2 57 22 17 22 -10 0 -22 4 -26
8 -4 4 5 7 20 7 24 0 25 2 16 20 -9 16 -20 20 -55 18 -25 0 -55 -8 -68 -17z"/>
<path d="M1054 1105 c9 -13 16 -31 16 -39 0 -10 12 -14 45 -14 25 1 45 4 45 7
0 9 -73 71 -84 71 -5 0 3 -13 19 -30 16 -16 24 -30 19 -30 -6 0 -20 14 -32 30
-27 36 -51 41 -28 5z"/>
<path d="M1195 1100 c-17 -19 -17 -21 0 -59 13 -29 16 -56 13 -96 -9 -103 -89
-179 -190 -179 -27 0 -43 -3 -35 -8 6 -4 37 -8 67 -8 170 1 279 175 204 327
-23 45 -35 50 -59 23z"/>
<path d="M851 983 c-2 -66 10 -81 66 -81 l48 0 -3 60 c-3 49 -7 59 -20 56 -12
-3 -17 -14 -17 -43 0 -22 -4 -46 -8 -53 -15 -23 -27 -1 -27 47 0 39 -4 50 -18
53 -16 5 -19 -1 -21 -39z"/>
<path d="M985 997 c-31 -47 19 -113 70 -93 8 3 15 10 15 16 0 6 -5 8 -11 5
-16 -10 -59 35 -59 62 0 26 3 28 30 11 21 -13 36 -6 25 11 -12 20 -54 12 -70
-12z"/>
<path d="M1085 997 c-12 -19 -13 -30 -4 -55 17 -49 83 -56 98 -11 4 12 2 12
-14 -1 -16 -13 -20 -12 -41 13 -24 28 -32 67 -15 67 5 0 14 -7 21 -15 14 -17
37 -4 26 14 -12 20 -55 12 -71 -12z"/>
<path d="M870 860 c0 -5 9 -10 21 -10 11 0 17 5 14 10 -3 6 -13 10 -21 10 -8
0 -14 -4 -14 -10z"/>
<path d="M920 862 c0 -14 11 -21 26 -15 21 8 17 23 -6 23 -11 0 -20 -4 -20 -8z"/>
<path d="M970 859 c0 -5 20 -9 45 -9 25 0 45 4 45 9 0 5 -20 9 -45 9 -25 0
-45 -4 -45 -9z"/>
<path d="M1070 860 c0 -9 61 -18 79 -12 26 9 7 20 -34 20 -25 0 -45 -3 -45 -8z"/>
<path d="M909 820 c30 -26 49 -26 26 0 -10 11 -25 20 -34 20 -12 -1 -10 -5 8
-20z"/>
<path d="M940 832 c0 -5 9 -17 20 -27 22 -20 26 -14 10 16 -11 19 -30 26 -30
11z"/>
<path d="M980 826 c1 -26 18 -37 48 -33 40 7 84 47 51 47 -7 0 -18 -8 -25 -17
-12 -16 -13 -16 -8 -1 4 13 -1 16 -30 15 -20 -1 -36 -6 -36 -11z"/>
<path d="M1095 820 c-10 -11 -14 -20 -9 -20 12 1 44 25 44 34 0 12 -17 6 -35
-14z"/>
<path d="M407 493 c-2 -5 -1 -19 4 -33 7 -23 7 -23 8 8 1 31 -3 40 -12 25z"/>
<path d="M465 490 c-3 -5 0 -19 9 -31 l14 -21 12 21 c6 12 8 26 5 31 -8 13
-32 13 -40 0z m35 -10 c0 -5 -4 -10 -10 -10 -5 0 -10 5 -10 10 0 6 5 10 10 10
6 0 10 -4 10 -10z"/>
<path d="M536 491 c-3 -5 0 -21 7 -35 l14 -26 13 24 c7 13 9 29 6 35 -9 13
-33 14 -40 2z m34 -11 c0 -5 -4 -10 -10 -10 -5 0 -10 5 -10 10 0 6 5 10 10 10
6 0 10 -4 10 -10z"/>
<path d="M608 476 c-5 -27 14 -52 31 -42 5 4 8 19 7 34 -4 36 -32 41 -38 8z
m32 -20 c0 -3 -4 -8 -10 -11 -5 -3 -10 -1 -10 4 0 6 5 11 10 11 6 0 10 -2 10
-4z"/>
<path d="M725 490 c-3 -6 1 -7 9 -4 20 8 21 -10 1 -26 -17 -15 -11 -30 13 -30
15 0 15 2 2 10 -12 7 -12 12 -2 22 6 6 12 18 12 25 0 15 -26 18 -35 3z"/>
<path d="M795 489 c-9 -13 3 -59 15 -59 5 0 14 9 20 21 17 30 -17 67 -35 38z
m25 -26 c0 -20 -3 -24 -11 -16 -7 7 -9 19 -6 27 10 24 17 19 17 -11z"/>
<path d="M877 493 c-2 -5 -1 -19 4 -33 7 -23 7 -23 8 8 1 31 -3 40 -12 25z"/>
<path d="M939 498 c-13 -48 0 -79 25 -59 17 14 9 61 -10 61 -8 0 -14 -1 -15
-2z m21 -48 c0 -5 -2 -10 -4 -10 -3 0 -8 5 -11 10 -3 6 -1 10 4 10 6 0 11 -4
11 -10z"/>
</g>
</svg>
